# xmcd CD database file
#
# Track frame offsets:
#	150
#	34760
#	51307
#	63957
#	76815
#	106879
#	125456
#	146640
#	178896
#
# Disc length: 2779 seconds
#
# Revision: 0
# Processed by: cddbd v1.5.1PL0 Copyright (c) Steve Scherf et al.
# Submitted via: CDex 1.51
#
DISCID=790ad909
DTITLE=沙弥音 - 黄
DYEAR=2001
DGENRE=Instrumental Rock
TTITLE0=ウタゲ
TTITLE1=金網の鬼
TTITLE2=景色
TTITLE3=狛犬
TTITLE4=回遊
TTITLE5=ワルツ
TTITLE6=コンクリートジャングル大帝
TTITLE7=七夕の国
TTITLE8=天平
EXTD=YEAR: 2001
EXTT0=
EXTT1=
EXTT2=
EXTT3=
EXTT4=
EXTT5=
EXTT6=
EXTT7=
EXTT8=
PLAYORDER=
